<svg width="120" height="120" fill="none" xmlns="http://www.w3.org/2000/svg"><path d="M12 80a4 4 0 0 1 4-4h20a4 4 0 0 1 4 4v28H12V80Z" fill="url(#a)"/><path d="M46 48a4 4 0 0 1 4-4h20a4 4 0 0 1 4 4v60H46V48Z" fill="url(#b)"/><path d="M80 16a4 4 0 0 1 4-4h20a4 4 0 0 1 4 4v92H80V16Z" fill="url(#c)"/><defs><linearGradient id="a" x1="26" y1="76" x2="26" y2="108" gradientUnits="userSpaceOnUse"><stop offset=".136" stop-color="#00E56D"/><stop offset="1" stop-color="#00E56D" stop-opacity=".1"/></linearGradient><linearGradient id="b" x1="60" y1="44" x2="60" y2="108" gradientUnits="userSpaceOnUse"><stop offset=".141" stop-color="#00E56D"/><stop offset="1" stop-color="#00E56D" stop-opacity=".1"/></linearGradient><linearGradient id="c" x1="94" y1="12" x2="94" y2="108" gradientUnits="userSpaceOnUse"><stop offset=".127" stop-color="#00E56D"/><stop offset="1" stop-color="#00E56D" stop-opacity=".1"/></linearGradient></defs></svg>