<svg width="120" height="120" fill="none" xmlns="http://www.w3.org/2000/svg"><path d="M60 44c25.405 0 46-6.716 46-15 0-8.284-20.595-15-46-15s-46 6.716-46 15c0 8.284 20.595 15 46 15Zm0 62c25.405 0 46-6.716 46-15 0-8.284-20.595-15-46-15s-46 6.716-46 15c0 8.284 20.595 15 46 15Z" fill="#00E56D"/><path d="M106 29H14v62h92V29Z" fill="url(#a)"/><defs><linearGradient id="a" x1="60.002" y1="29" x2="60.002" y2="91" gradientUnits="userSpaceOnUse"><stop stop-color="#00E56D"/><stop offset="1" stop-color="#00E56D" stop-opacity="0"/></linearGradient></defs></svg>