<svg xmlns="http://www.w3.org/2000/svg" width="91" height="49" fill="none"><path fill="#fff" d="M23.639 0h4.182v25.846H23.64zm18.729 17.655c0 4.005-3.273 4.369-4.364 4.369-2.546 0-2.91-2.366-2.91-3.64V8.372h-4.182V18.2c0 2.367.728 4.55 2.182 5.825 1.273 1.274 2.91 1.82 4.91 1.82 1.455 0 3.273-.364 4.364-1.456v1.456h4.183V8.373h-4.183zM54.735 2.002h-4.183v6.37h-3.091v4.005h3.091v13.47h4.183v-13.47h3.091V8.373h-3.091zM70.92 20.568c-.909.728-2.182 1.274-3.455 1.274-2.91 0-4.91-2.184-4.91-5.097 0-2.912 2-4.914 4.91-4.914 1.273 0 2.546.364 3.455 1.274l.546.546 2.91-2.73-.728-.546a9.32 9.32 0 0 0-6.183-2.366c-5.092 0-8.91 3.822-8.91 8.918 0 5.097 3.819 8.92 8.91 8.92 2.364 0 4.546-.91 6.183-2.367l.727-.546-2.91-2.912zM89.104 9.829c-1.273-1.274-2.546-1.82-4.546-1.82-1.455 0-2.91.364-4 1.456V0h-4.183v25.846h4.183V16.2c0-4.004 2.727-4.368 3.818-4.368 2.546 0 2.364 2.366 2.364 3.64v10.193h4.183v-10.01c0-2.367-.546-4.551-1.819-5.825"/><path fill="#fff" d="M67.285 19.84a2.91 2.91 0 0 0 2.91-2.913 2.91 2.91 0 0 0-2.91-2.912 2.91 2.91 0 0 0-2.91 2.912 2.91 2.91 0 0 0 2.91 2.913m-49.465-.364c-1.454 1.456-3.636 2.366-6 2.366-4.546 0-7.82-3.64-7.82-8.555s3.274-8.555 8.002-8.555c2.182 0 4.364.91 6 2.549l.546.546 2.728-2.73-.546-.547C18.367 2.184 15.276.91 12.003.91 5.092.728 0 6.19 0 13.287s5.092 12.56 11.82 12.56c3.273 0 6.546-1.275 8.729-3.641l.545-.546-2.728-2.73z"/><path fill="#00E56D" d="m6.973 35.027 1.462 4.5h4.73l-3.827 2.78 1.462 4.5-3.827-2.781-3.828 2.78 1.462-4.499-3.827-2.78h4.73zm14.021 0 1.462 4.5h4.731l-3.827 2.78 1.462 4.5-3.828-2.781-3.827 2.78 1.462-4.499-3.828-2.78h4.731zm14.023 0 1.461 4.5h4.731l-3.827 2.78 1.462 4.5-3.828-2.781-3.827 2.78 1.462-4.499-3.827-2.78h4.73zm14.021 0 1.462 4.5h4.731l-3.827 2.78 1.462 4.5-3.828-2.781-3.827 2.78 1.462-4.499-3.828-2.78h4.732zm14.022 0 1.462 4.5h4.731l-3.827 2.78 1.462 4.5-3.828-2.781-3.827 2.78 1.462-4.499-3.827-2.78h4.73z"/><path fill="#fff" d="M73.832 44.111v-1.428l3.939-5.59h2.263v5.583h1.17v1.435h-1.17v1.928H78.3V44.11zm4.467-1.434v-3.819h-.012l-2.672 3.807v.011zm2.882 5.229.444-3.326h1.7l-.907 3.326zm5.932-1.724q-.89 0-1.573-.336a2.84 2.84 0 0 1-1.087-.918 2.77 2.77 0 0 1-.486-1.321h1.723q.096.522.474.834.379.313.967.313.954 0 1.417-.769.462-.768.462-2.023h-.012a2.13 2.13 0 0 1-.877.774 2.9 2.9 0 0 1-1.242.259q-.865 0-1.543-.385a2.9 2.9 0 0 1-1.063-1.062q-.384-.672-.384-1.537 0-.913.42-1.603a2.9 2.9 0 0 1 1.17-1.075q.751-.384 1.718-.384 1.674 0 2.6 1.153.924 1.152.924 3.236 0 1.47-.414 2.563-.41 1.087-1.213 1.687-.805.594-1.981.594m.078-4.58q.444 0 .798-.21.36-.21.565-.57.21-.36.21-.817t-.204-.817a1.52 1.52 0 0 0-1.351-.786q-.667 0-1.117.462-.45.456-.45 1.147 0 .684.444 1.14.445.45 1.105.45"/></svg>